<?xml version="1.0" encoding="UTF-8" standalone="no"?>
<svg width="911px" height="802px" viewBox="0 0 911 802" version="1.1" xmlns="http://www.w3.org/2000/svg" xmlns:xlink="http://www.w3.org/1999/xlink" xmlns:sketch="http://www.bohemiancoding.com/sketch/ns">
    <!-- Generator: Sketch 3.0.4 (8053) - http://www.bohemiancoding.com/sketch -->
    <title>Triangle 2 + Oval 6</title>
    <desc>Created with Sketch.</desc>
    <defs></defs>
    <g id="Page-2" stroke="none" stroke-width="1" fill="none" fill-rule="evenodd" sketch:type="MSPage">
        <g id="Triangle-2-+-Oval-6" sketch:type="MSLayerGroup" transform="translate(-24.000000, -36.000000)">
            <path d="M499.006405,702.85182 L251.177248,837.300086 L321.814686,682.156891 L72.332702,714.913229 L266.397464,524.073118 L266.397464,524.073118 L24.5001975,369.848833 L222.122885,354.22618 L112.900808,211.782275 L384.080069,286.885013 L384.080069,286.885013 C386.09357,285.527277 388.131924,284.208013 390.194234,282.928182 L389.908375,282.818451 L593.252277,36.3179289 L582.98676,273.335802 L862.80563,241.553405 L679.632452,415.499816 L934.90771,491.212726 L641.935188,600.867238 L753.653277,835.299638 L499.006405,702.85182 Z" id="Triangle-2" fill="#4990E2" sketch:type="MSShapeGroup"></path>
            <path d="M342.176794,453.038181 C342.775496,451.690109 343.500103,450.375616 344.353622,449.110221 L452.330912,289.027306 C460.1872,277.379881 476.008373,274.299931 487.660733,282.159547 C499.315656,290.020892 502.387603,305.83692 494.527842,317.489495 L415.232496,435.04968 L415.232496,435.04968 C418.971617,435.149339 422.669714,435.398245 426.319882,435.790094 L426.319882,435.790094 L533.747867,320.587684 C543.32949,310.312651 559.437689,309.745597 569.717074,319.33128 C579.99872,328.91907 580.558675,345.020935 570.972816,355.30051 L479.585214,453.301715 C485.748781,456.94089 491.540457,461.059794 496.896776,465.600513 C498.28305,463.661564 499.967303,461.8864 501.940987,460.34439 L612.529162,373.943438 C623.603188,365.291461 639.592896,367.258203 648.246194,378.33392 C656.901395,389.412072 654.938201,405.401236 643.865528,414.052157 L533.277352,500.453109 C531.246838,502.039521 529.051056,503.268928 526.765537,504.150639 L526.765537,504.150639 C530.278615,511.572459 532.956057,519.400699 534.68966,527.536622 L534.68966,527.536622 L640.342691,456.272753 C650.399377,449.489432 664.042944,452.140656 670.821844,462.190789 C677.602235,472.243132 674.945531,485.885812 664.89126,492.667503 L542.769847,575.039437 C540.622926,576.487553 538.312535,577.505694 535.94036,578.113666 C530.974846,583.921539 518.96297,588.855136 501.223431,602.717819 C465.150403,630.907333 448.193517,664.044126 411.5,664.044126 C342.188264,664.044126 309.526623,622.330246 309.526623,528.665123 C309.526623,520.616064 309.930645,513.403075 310.697894,506.928301 L280.419569,377.150621 C277.331734,363.91567 285.703734,351.466368 299.118343,349.341703 L300.811794,349.073487 C314.223767,346.949239 326.823152,356.099097 328.94742,369.511199 L342.176794,453.038181 Z" id="Oval-6" fill="#FFFFFF" sketch:type="MSShapeGroup" transform="translate(480.000000, 466.000000) rotate(4.000000) translate(-480.000000, -466.000000) "></path>
        </g>
    </g>
</svg>